<svg width="512" height="512" viewBox="0 0 512 512" fill="none" xmlns="http://www.w3.org/2000/svg">
<path d="M0 20C0 8.95431 8.95431 0 20 0H492C503.046 0 512 8.95431 512 20V492C512 503.046 503.046 512 492 512H20C8.95431 512 0 503.046 0 492V20Z" fill="#820000"/>
<path d="M256.263 88.8615L210.52 175.099" stroke="#DC143C" stroke-width="10" stroke-linecap="round"/>
<g filter="url(#filter0_d_102_64)">
<path d="M255.849 155.318C281.168 155.318 301.693 134.793 301.693 109.474C301.693 84.1542 281.168 63.6289 255.849 63.6289C230.529 63.6289 210.004 84.1542 210.004 109.474C210.004 134.793 230.529 155.318 255.849 155.318Z" stroke="black" stroke-width="10"/>
</g>
<g filter="url(#filter1_d_102_64)">
<path d="M256.293 88.7759L303.738 173.653" stroke="#DC143C" stroke-width="10" stroke-linecap="round"/>
</g>
<path d="M363.139 411.372L333.257 381.491C343.148 369.738 350.313 356.736 351.374 345.888C351.935 340.144 347.734 335.033 341.99 334.471C336.247 333.909 331.136 338.111 330.574 343.854C330.439 345.229 330.099 346.706 329.584 348.258L300.335 319.01L363.135 256.2C364.282 255.054 365.146 253.656 365.658 252.119L380.445 207.792C383.169 199.623 375.398 191.849 367.228 194.572L322.891 209.348C321.352 209.861 319.953 210.725 318.806 211.872L256 274.679L193.193 211.876C192.047 210.729 190.649 209.865 189.111 209.353L144.773 194.566C136.604 191.842 128.83 199.615 131.555 207.785L146.341 252.122C146.854 253.661 147.718 255.058 148.865 256.205L211.667 319.012L182.287 348.392C181.823 346.918 181.537 345.524 181.458 344.239C181.109 338.479 176.155 334.092 170.395 334.442C164.635 334.792 160.248 339.745 160.598 345.505C161.072 353.317 164.967 362.359 170.911 371.273C170.973 371.371 171.028 371.472 171.093 371.569C171.318 371.9 171.555 372.231 171.784 372.562C171.786 372.564 171.787 372.566 171.788 372.568C172.186 373.141 172.588 373.713 173.002 374.284C173.364 374.786 173.733 375.288 174.107 375.789C174.21 375.926 174.313 376.063 174.417 376.2C175.774 377.998 177.205 379.779 178.699 381.534L148.861 411.372C144.781 407.292 138.165 407.292 134.084 411.372C130.003 415.453 130.003 422.07 134.084 426.15L141.4 433.466C141.424 433.491 141.444 433.518 141.469 433.543C141.493 433.567 141.52 433.587 141.545 433.612L148.86 440.927C152.941 445.007 159.557 445.007 163.638 440.927C167.718 436.846 167.719 430.231 163.64 426.151L193.521 396.269C205.275 406.16 218.277 413.325 229.125 414.386C234.869 414.947 239.98 410.746 240.542 405.002C241.103 399.259 236.902 394.147 231.158 393.586C229.783 393.451 228.304 393.11 226.751 392.595L255.996 363.344L285.377 392.727C283.905 393.19 282.513 393.476 281.23 393.554C275.47 393.903 271.083 398.857 271.433 404.617C271.782 410.377 276.735 414.764 282.496 414.414C290.327 413.939 299.395 410.024 308.332 404.055C308.402 404.009 308.475 403.971 308.544 403.924C308.804 403.749 309.062 403.563 309.321 403.384C309.583 403.205 309.845 403.022 310.106 402.839C310.382 402.644 310.659 402.454 310.935 402.256C311.572 401.801 312.206 401.333 312.84 400.859C312.943 400.782 313.045 400.706 313.147 400.628C314.96 399.262 316.756 397.819 318.526 396.312L348.363 426.15C344.283 430.231 344.283 436.847 348.363 440.928C352.444 445.009 359.061 445.009 363.141 440.928L370.468 433.601C370.489 433.581 370.512 433.564 370.533 433.543C370.554 433.521 370.571 433.498 370.592 433.477L377.917 426.153C381.997 422.072 381.997 415.456 377.917 411.375C373.835 407.295 367.22 407.294 363.139 411.372ZM331.84 228.395L354.006 221.008L346.614 243.167L285.557 304.233L270.779 289.456L331.84 228.395ZM157.994 221.006L180.16 228.398L248.521 296.755C248.552 296.786 248.577 296.82 248.608 296.851L278.169 326.402C278.172 326.405 278.175 326.407 278.178 326.41L318.406 366.634C316.153 369.417 313.704 372.14 311.123 374.721C308.707 377.137 306.216 379.398 303.685 381.48L263.412 341.204C263.402 341.194 263.394 341.183 263.384 341.174L233.833 311.622C233.83 311.619 233.827 311.617 233.825 311.614L165.386 243.172L157.994 221.006ZM208.374 381.416C206.307 379.743 204.268 377.956 202.29 376.085C202.28 376.075 202.27 376.065 202.259 376.055C201.702 375.527 201.152 374.989 200.605 374.448C200.439 374.283 200.273 374.118 200.108 373.953C197.745 371.566 195.556 369.152 193.535 366.699L226.444 333.79L241.218 348.565L208.374 381.416Z" fill="white"/>
<defs>
<filter id="filter0_d_102_64" x="201.004" y="58.6289" width="109.689" height="109.689" filterUnits="userSpaceOnUse" color-interpolation-filters="sRGB">
<feFlood flood-opacity="0" result="BackgroundImageFix"/>
<feColorMatrix in="SourceAlpha" type="matrix" values="0 0 0 0 0 0 0 0 0 0 0 0 0 0 0 0 0 0 127 0" result="hardAlpha"/>
<feOffset dy="4"/>
<feGaussianBlur stdDeviation="2"/>
<feComposite in2="hardAlpha" operator="out"/>
<feColorMatrix type="matrix" values="0 0 0 0 0 0 0 0 0 0 0 0 0 0 0 0 0 0 0.25 0"/>
<feBlend mode="normal" in2="BackgroundImageFix" result="effect1_dropShadow_102_64"/>
<feBlend mode="normal" in="SourceGraphic" in2="effect1_dropShadow_102_64" result="shape"/>
</filter>
<filter id="filter1_d_102_64" x="246.292" y="82.775" width="67.4466" height="104.879" filterUnits="userSpaceOnUse" color-interpolation-filters="sRGB">
<feFlood flood-opacity="0" result="BackgroundImageFix"/>
<feColorMatrix in="SourceAlpha" type="matrix" values="0 0 0 0 0 0 0 0 0 0 0 0 0 0 0 0 0 0 127 0" result="hardAlpha"/>
<feOffset dy="4"/>
<feGaussianBlur stdDeviation="2.5"/>
<feComposite in2="hardAlpha" operator="out"/>
<feColorMatrix type="matrix" values="0 0 0 0 0 0 0 0 0 0 0 0 0 0 0 0 0 0 0.25 0"/>
<feBlend mode="normal" in2="BackgroundImageFix" result="effect1_dropShadow_102_64"/>
<feBlend mode="normal" in="SourceGraphic" in2="effect1_dropShadow_102_64" result="shape"/>
</filter>
</defs>
</svg>
