<svg width="42" height="34" viewBox="0 0 42 34" fill="none" xmlns="http://www.w3.org/2000/svg">
<path d="M41.3536 4.35355C41.5488 4.15829 41.5488 3.84171 41.3536 3.64645L38.1716 0.464466C37.9763 0.269204 37.6597 0.269204 37.4645 0.464466C37.2692 0.659728 37.2692 0.976311 37.4645 1.17157L40.2929 4L37.4645 6.82843C37.2692 7.02369 37.2692 7.34027 37.4645 7.53553C37.6597 7.7308 37.9763 7.7308 38.1716 7.53553L41.3536 4.35355ZM1 4.5H41V3.5H1V4.5Z" fill="black" fill-opacity="0.2"/>
<path d="M0.646446 30.3536C0.451183 30.1583 0.451183 29.8417 0.646446 29.6464L3.82843 26.4645C4.02369 26.2692 4.34027 26.2692 4.53553 26.4645C4.7308 26.6597 4.7308 26.9763 4.53553 27.1716L1.70711 30L4.53553 32.8284C4.7308 33.0237 4.7308 33.3403 4.53553 33.5355C4.34027 33.7308 4.02369 33.7308 3.82843 33.5355L0.646446 30.3536ZM41 30.5H1V29.5H41V30.5Z" fill="black" fill-opacity="0.2"/>
</svg>
