<svg width="512" height="512" viewBox="0 0 512 512" fill="none" xmlns="http://www.w3.org/2000/svg">
<path d="M0 20C0 8.95431 8.95431 0 20 0H492C503.046 0 512 8.95431 512 20V492C512 503.046 503.046 512 492 512H20C8.95431 512 0 503.046 0 492V20Z" fill="#820000"/>
<path d="M138 157.178C138 153.914 139.983 150.978 143.01 149.758L199 127.198L259.459 96.7813C261.69 95.6589 264.318 95.6428 266.562 96.7378L329 127.198L383.076 149.725C386.058 150.967 388 153.88 388 157.11V281.079C388 319.955 367.48 355.944 334.023 375.743L266 416L193.957 375.363C159.385 355.862 138 319.247 138 279.554V157.178Z" fill="black"/>
<path d="M201.616 133.69L201.886 133.582L202.146 133.451L262.605 103.035C262.884 102.894 263.213 102.892 263.493 103.029L325.931 133.489L326.117 133.58L326.308 133.659L380.385 156.187C380.757 156.342 381 156.706 381 157.11V281.079C381 317.481 361.785 351.179 330.458 369.719L265.916 407.916L197.396 369.266C165.024 351.006 145 316.721 145 279.554V157.178C145 156.77 145.248 156.403 145.626 156.25L201.616 133.69Z" stroke="white" stroke-opacity="0.9" stroke-width="14"/>
<path d="M163 172.547C163 169.324 164.935 166.415 167.909 165.169L211.8 146.781L259.348 121.91C261.64 120.712 264.369 120.694 266.675 121.864L315.8 146.781L358.18 165.137C361.106 166.405 363 169.289 363 172.478V265.474C363 303.675 343.181 339.14 310.646 359.159L265.4 387L217.352 358.821C183.684 339.076 163 302.967 163 263.935V172.547Z" fill="white"/>
<path d="M214.505 153.237L214.78 153.122L215.044 152.984L262.593 128.113C262.879 127.963 263.22 127.961 263.509 128.107L312.633 153.024L312.823 153.12L313.018 153.205L355.397 171.561C355.763 171.719 356 172.08 356 172.478V265.474C356 301.244 337.442 334.452 306.978 353.198L265.313 378.834L220.893 352.783C189.367 334.294 170 300.483 170 263.935V172.547C170 172.144 170.242 171.781 170.614 171.625L214.505 153.237Z" stroke="white" stroke-opacity="0.9" stroke-width="14"/>
<path d="M262.259 225.233L216.516 311.47" stroke="#DC143C" stroke-width="10" stroke-linecap="round"/>
<g filter="url(#filter0_d_124_27)">
<path d="M262.289 225.147L309.734 310.024" stroke="#DC143C" stroke-width="10" stroke-linecap="round"/>
</g>
<g filter="url(#filter1_d_124_27)">
<path d="M261.845 291.689C287.164 291.689 307.689 271.164 307.689 245.845C307.689 220.525 287.164 200 261.845 200C236.525 200 216 220.525 216 245.845C216 271.164 236.525 291.689 261.845 291.689Z" stroke="black" stroke-width="10"/>
</g>
<defs>
<filter id="filter0_d_124_27" x="252.288" y="219.146" width="67.4465" height="104.879" filterUnits="userSpaceOnUse" color-interpolation-filters="sRGB">
<feFlood flood-opacity="0" result="BackgroundImageFix"/>
<feColorMatrix in="SourceAlpha" type="matrix" values="0 0 0 0 0 0 0 0 0 0 0 0 0 0 0 0 0 0 127 0" result="hardAlpha"/>
<feOffset dy="4"/>
<feGaussianBlur stdDeviation="2.5"/>
<feComposite in2="hardAlpha" operator="out"/>
<feColorMatrix type="matrix" values="0 0 0 0 0 0 0 0 0 0 0 0 0 0 0 0 0 0 0.25 0"/>
<feBlend mode="normal" in2="BackgroundImageFix" result="effect1_dropShadow_124_27"/>
<feBlend mode="normal" in="SourceGraphic" in2="effect1_dropShadow_124_27" result="shape"/>
</filter>
<filter id="filter1_d_124_27" x="207" y="195" width="109.689" height="109.689" filterUnits="userSpaceOnUse" color-interpolation-filters="sRGB">
<feFlood flood-opacity="0" result="BackgroundImageFix"/>
<feColorMatrix in="SourceAlpha" type="matrix" values="0 0 0 0 0 0 0 0 0 0 0 0 0 0 0 0 0 0 127 0" result="hardAlpha"/>
<feOffset dy="4"/>
<feGaussianBlur stdDeviation="2"/>
<feComposite in2="hardAlpha" operator="out"/>
<feColorMatrix type="matrix" values="0 0 0 0 0 0 0 0 0 0 0 0 0 0 0 0 0 0 0.25 0"/>
<feBlend mode="normal" in2="BackgroundImageFix" result="effect1_dropShadow_124_27"/>
<feBlend mode="normal" in="SourceGraphic" in2="effect1_dropShadow_124_27" result="shape"/>
</filter>
</defs>
</svg>
