<svg width="32" height="32" viewBox="0 0 32 32" fill="none" xmlns="http://www.w3.org/2000/svg">
<path d="M13.5625 8.11749C13.1719 7.72687 12.5388 7.72687 12.1481 8.11749L4.97564 15.29C4.95126 15.3144 4.92814 15.34 4.90626 15.3669C4.89939 15.375 4.89376 15.3837 4.88689 15.3925C4.87376 15.41 4.86064 15.4269 4.84814 15.445C4.83939 15.4581 4.83189 15.4719 4.82376 15.485C4.81501 15.4994 4.80626 15.5137 4.79814 15.5287C4.79001 15.5437 4.78314 15.5587 4.77626 15.5744C4.76939 15.5887 4.76251 15.6025 4.75626 15.6169C4.74939 15.6331 4.74439 15.6494 4.73876 15.6656C4.73376 15.68 4.72814 15.6944 4.72376 15.7087C4.71814 15.7269 4.71439 15.745 4.71001 15.7625C4.70689 15.7762 4.70314 15.7894 4.70001 15.8031C4.69501 15.8269 4.69189 15.8506 4.68939 15.8744C4.68814 15.8831 4.68689 15.8912 4.68564 15.9C4.67876 15.9669 4.67876 16.0344 4.68564 16.1012C4.68626 16.105 4.68689 16.1087 4.68751 16.1125C4.69064 16.1412 4.69501 16.17 4.70064 16.1981C4.70251 16.2062 4.70501 16.2144 4.70689 16.2225C4.71251 16.2462 4.71814 16.27 4.72501 16.2931C4.72751 16.3012 4.73064 16.3094 4.73376 16.3181C4.74126 16.3406 4.74939 16.3637 4.75876 16.3862C4.76189 16.3931 4.76501 16.3994 4.76814 16.4062C4.77876 16.4294 4.78939 16.4525 4.80126 16.475C4.80376 16.4794 4.80689 16.4837 4.80939 16.4881C4.82251 16.5119 4.83689 16.5356 4.85189 16.5587C4.85314 16.5606 4.85439 16.5625 4.85564 16.5644C4.89001 16.615 4.92939 16.6631 4.97376 16.7075L12.1494 23.8831C12.3444 24.0781 12.6006 24.1762 12.8563 24.1762C13.1119 24.1762 13.3681 24.0787 13.5631 23.8831C13.9538 23.4925 13.9538 22.8594 13.5631 22.4687L8.09439 17H26.3206C26.8731 17 27.3206 16.5525 27.3206 16C27.3206 15.4475 26.8731 15 26.3206 15H8.09439L13.5625 9.53124C13.9531 9.14124 13.9531 8.50812 13.5625 8.11749Z" fill="#333333"/>
</svg>
