<svg width="10" height="5" viewBox="0 0 10 5" fill="none" xmlns="http://www.w3.org/2000/svg">
<path d="M8.97111 0.114392L4.72371 3.96615L0.512909 0.0811903C0.396359 -0.0265117 0.206309 -0.0270607 0.0887088 0.0795437C-0.0288912 0.186148 -0.0296411 0.35998 0.0869089 0.467408L4.46601 4.50767C4.52076 4.55816 4.59126 4.58492 4.66281 4.58848C4.68366 4.58958 4.70451 4.58835 4.72506 4.5856C4.73316 4.5867 4.74096 4.58848 4.74906 4.58862C4.83066 4.5926 4.91391 4.5664 4.97631 4.50959L9.39336 0.503903C9.51111 0.397299 9.51186 0.223604 9.39516 0.115902C9.27846 0.00819965 9.08856 0.00765064 8.97111 0.114392Z" fill="black"/>
</svg>
