<svg width="250" height="321" viewBox="0 0 250 321" fill="none" xmlns="http://www.w3.org/2000/svg">
<path d="M0 62.178C0 58.9142 1.98277 55.9776 5.01012 54.7578L61 32.1976L121.459 1.78128C123.69 0.658861 126.318 0.642784 128.562 1.73781L191 32.1976L245.076 54.7254C248.058 55.9674 250 58.8804 250 62.1102V186.079C250 224.955 229.48 260.944 196.023 280.743L128 321L55.9572 280.363C21.3847 260.862 0 224.247 0 184.554V62.178Z" fill="black"/>
<path d="M63.6161 38.6903L63.886 38.5816L64.1459 38.4508L124.605 8.03453C124.884 7.89423 125.213 7.89222 125.493 8.0291L187.931 38.4889L188.117 38.5796L188.308 38.6593L242.385 61.1871C242.757 61.3424 243 61.7065 243 62.1102V186.079C243 222.481 223.785 256.179 192.458 274.719L127.916 312.916L59.3963 274.266C27.0239 256.006 7 221.721 7 184.554V62.178C7 61.7701 7.24784 61.403 7.62627 61.2505L63.6161 38.6903Z" stroke="white" stroke-opacity="0.9" stroke-width="14"/>
<path d="M25 77.5475C25 74.3235 26.9352 71.4146 29.9088 70.1688L73.8 51.7812L121.348 26.91C123.64 25.7115 126.369 25.6944 128.675 26.8641L177.8 51.7812L220.18 70.1374C223.106 71.4049 225 74.2894 225 77.4784V170.474C225 208.675 205.181 244.14 172.646 264.159L127.4 292L79.3521 263.821C45.6836 244.076 25 207.967 25 168.935V77.5475Z" fill="white"/>
<path d="M76.5048 58.2375L76.78 58.1222L77.0444 57.9839L124.593 33.1127C124.879 32.9629 125.22 32.9608 125.509 33.107L174.633 58.024L174.823 58.1201L175.018 58.2045L217.397 76.5608C217.763 76.7192 218 77.0798 218 77.4784V170.474C218 206.244 199.442 239.452 168.978 258.198L127.313 283.834L82.8933 257.783C51.3673 239.294 32 205.483 32 168.935V77.5475C32 77.1445 32.2419 76.7809 32.6136 76.6252L76.5048 58.2375Z" stroke="white" stroke-opacity="0.9" stroke-width="14"/>
<path d="M124.259 130.233L78.5156 216.47" stroke="#DC143C" stroke-width="10" stroke-linecap="round"/>
<path d="M124.289 130.147L171.734 215.024" stroke="#DC143C" stroke-width="10" stroke-linecap="round"/>
<path d="M123.845 196.689C149.164 196.689 169.689 176.164 169.689 150.845C169.689 125.525 149.164 105 123.845 105C98.5253 105 78 125.525 78 150.845C78 176.164 98.5253 196.689 123.845 196.689Z" stroke="black" stroke-width="10"/>
</svg>
