<svg width="250" height="400" viewBox="0 0 250 400" fill="none" xmlns="http://www.w3.org/2000/svg">
<path d="M125.263 44.8615L79.5195 131.099" stroke="#DC143C" stroke-width="10" stroke-linecap="round"/>
<g filter="url(#filter0_d_108_6)">
<path d="M124.849 111.318C150.168 111.318 170.693 90.7928 170.693 65.4735C170.693 40.1542 150.168 19.6289 124.849 19.6289C99.5292 19.6289 79.0039 40.1542 79.0039 65.4735C79.0039 90.7928 99.5292 111.318 124.849 111.318Z" stroke="black" stroke-width="10"/>
</g>
<g filter="url(#filter1_d_108_6)">
<path d="M125.293 44.7759L172.738 129.653" stroke="#DC143C" stroke-width="10" stroke-linecap="round"/>
</g>
<path d="M232.139 367.372L202.257 337.491C212.148 325.738 219.313 312.736 220.374 301.888C220.935 296.144 216.734 291.033 210.99 290.471C205.247 289.909 200.136 294.111 199.574 299.854C199.439 301.229 199.099 302.706 198.584 304.258L169.335 275.01L232.135 212.2C233.282 211.054 234.146 209.656 234.658 208.119L249.445 163.792C252.169 155.623 244.398 147.849 236.228 150.572L191.891 165.348C190.352 165.861 188.953 166.725 187.806 167.872L125 230.679L62.1933 167.876C61.0466 166.729 59.6487 165.865 58.1107 165.353L13.7733 150.566C5.60357 147.842 -2.16985 155.615 0.555008 163.785L15.3412 208.122C15.854 209.661 16.718 211.058 17.8647 212.205L80.6668 275.012L51.287 304.392C50.8231 302.918 50.5366 301.524 50.4582 300.239C50.109 294.479 45.1554 290.092 39.3952 290.442C33.6349 290.792 29.2481 295.745 29.5978 301.505C30.072 309.317 33.967 318.359 39.9114 327.273C39.9732 327.371 40.0275 327.472 40.0932 327.569C40.3175 327.9 40.5546 328.231 40.7843 328.562C40.7858 328.564 40.7872 328.566 40.7882 328.568C41.186 329.141 41.5881 329.713 42.002 330.284C42.3645 330.786 42.7328 331.288 43.107 331.789C43.2099 331.926 43.3127 332.063 43.4171 332.2C44.7739 333.998 46.2046 335.779 47.6986 337.534L17.8613 367.372C13.7806 363.292 7.16462 363.292 3.08394 367.372C-0.996738 371.453 -0.996738 378.07 3.08394 382.15L10.3999 389.466C10.4239 389.491 10.4444 389.518 10.4689 389.543C10.4934 389.567 10.5204 389.587 10.5453 389.612L17.8603 396.927C21.941 401.007 28.5574 401.007 32.6381 396.927C36.7183 392.846 36.7188 386.231 32.6396 382.151L62.5215 352.269C74.2747 362.16 87.2769 369.325 98.1249 370.386C103.869 370.947 108.98 366.746 109.542 361.002C110.103 355.259 105.902 350.147 100.158 349.586C98.7827 349.451 97.3045 349.11 95.7513 348.595L124.996 319.344L154.377 348.727C152.905 349.19 151.513 349.476 150.23 349.554C144.47 349.903 140.083 354.857 140.433 360.617C140.782 366.377 145.735 370.764 151.496 370.414C159.327 369.939 168.395 366.024 177.332 360.055C177.402 360.009 177.475 359.971 177.544 359.924C177.804 359.749 178.062 359.563 178.321 359.384C178.583 359.205 178.845 359.022 179.106 358.839C179.382 358.644 179.659 358.454 179.935 358.256C180.572 357.801 181.206 357.333 181.84 356.859C181.943 356.782 182.045 356.706 182.147 356.628C183.96 355.262 185.756 353.819 187.526 352.312L217.363 382.15C213.283 386.231 213.283 392.847 217.363 396.928C221.444 401.009 228.061 401.009 232.141 396.928L239.468 389.601C239.489 389.581 239.512 389.564 239.533 389.543C239.554 389.521 239.571 389.498 239.592 389.477L246.917 382.153C250.997 378.072 250.997 371.456 246.917 367.375C242.835 363.295 236.22 363.294 232.139 367.372ZM200.84 184.395L223.006 177.008L215.614 199.167L154.557 260.233L139.779 245.456L200.84 184.395ZM26.9944 177.006L49.1597 184.398L117.521 252.755C117.552 252.786 117.577 252.82 117.608 252.851L147.169 282.402C147.172 282.405 147.175 282.407 147.178 282.41L187.406 322.634C185.153 325.417 182.704 328.14 180.123 330.721C177.707 333.137 175.216 335.398 172.685 337.48L132.412 297.204C132.402 297.194 132.394 297.183 132.384 297.174L102.833 267.622C102.83 267.619 102.827 267.617 102.825 267.614L34.3863 199.172L26.9944 177.006ZM77.3737 337.416C75.3072 335.743 73.2676 333.956 71.2902 332.085C71.2799 332.075 71.2696 332.065 71.2593 332.055C70.7019 331.527 70.1519 330.989 69.6052 330.448C69.4387 330.283 69.2731 330.118 69.1081 329.953C66.7447 327.566 64.5557 325.152 62.5352 322.699L95.4441 289.79L110.218 304.565L77.3737 337.416Z" fill="white"/>
<defs>
<filter id="filter0_d_108_6" x="70.0039" y="14.6289" width="109.689" height="109.689" filterUnits="userSpaceOnUse" color-interpolation-filters="sRGB">
<feFlood flood-opacity="0" result="BackgroundImageFix"/>
<feColorMatrix in="SourceAlpha" type="matrix" values="0 0 0 0 0 0 0 0 0 0 0 0 0 0 0 0 0 0 127 0" result="hardAlpha"/>
<feOffset dy="4"/>
<feGaussianBlur stdDeviation="2"/>
<feComposite in2="hardAlpha" operator="out"/>
<feColorMatrix type="matrix" values="0 0 0 0 0 0 0 0 0 0 0 0 0 0 0 0 0 0 0.25 0"/>
<feBlend mode="normal" in2="BackgroundImageFix" result="effect1_dropShadow_108_6"/>
<feBlend mode="normal" in="SourceGraphic" in2="effect1_dropShadow_108_6" result="shape"/>
</filter>
<filter id="filter1_d_108_6" x="115.292" y="38.775" width="67.4466" height="104.879" filterUnits="userSpaceOnUse" color-interpolation-filters="sRGB">
<feFlood flood-opacity="0" result="BackgroundImageFix"/>
<feColorMatrix in="SourceAlpha" type="matrix" values="0 0 0 0 0 0 0 0 0 0 0 0 0 0 0 0 0 0 127 0" result="hardAlpha"/>
<feOffset dy="4"/>
<feGaussianBlur stdDeviation="2.5"/>
<feComposite in2="hardAlpha" operator="out"/>
<feColorMatrix type="matrix" values="0 0 0 0 0 0 0 0 0 0 0 0 0 0 0 0 0 0 0.25 0"/>
<feBlend mode="normal" in2="BackgroundImageFix" result="effect1_dropShadow_108_6"/>
<feBlend mode="normal" in="SourceGraphic" in2="effect1_dropShadow_108_6" result="shape"/>
</filter>
</defs>
</svg>
