<svg width="18" height="18" viewBox="0 0 18 18" fill="none" xmlns="http://www.w3.org/2000/svg">
<path d="M0.47475 3.40314C0.33075 3.25914 0.260437 3.07632 0.260437 2.8547C0.260437 2.63307 0.33075 2.45026 0.47475 2.30626C0.61875 2.16226 0.801562 2.09195 1.02319 2.09195H17.0612C17.2828 2.09195 17.4656 2.16226 17.6096 2.30626C17.7536 2.45026 17.8239 2.63307 17.8239 2.8547C17.8239 3.07632 17.7536 3.25914 17.6096 3.40314C17.4656 3.54714 17.2828 3.61745 17.0612 3.61745H1.02319C0.801562 3.61745 0.61875 3.54714 0.47475 3.40314ZM17.6096 8.4167C17.7536 8.5607 17.8239 8.74351 17.8239 8.96514C17.8239 9.18676 17.7536 9.36958 17.6096 9.51358C17.4656 9.65758 17.2828 9.72789 17.0612 9.72789H1.02319C0.801562 9.72789 0.61875 9.65758 0.47475 9.51358C0.33075 9.36958 0.260437 9.18676 0.260437 8.96514C0.260437 8.74351 0.33075 8.5607 0.47475 8.4167C0.61875 8.2727 0.801562 8.20239 1.02319 8.20239H17.0612C17.2828 8.20239 17.4656 8.2727 17.6096 8.4167ZM17.6096 14.5232C17.7536 14.6672 17.8239 14.85 17.8239 15.0716C17.8239 15.2933 17.7536 15.4761 17.6096 15.6201C17.4656 15.7641 17.2828 15.8344 17.0612 15.8344H1.02319C0.801562 15.8344 0.61875 15.7641 0.47475 15.6201C0.33075 15.4761 0.260437 15.2933 0.260437 15.0716C0.260437 14.85 0.33075 14.6672 0.47475 14.5232C0.61875 14.3792 0.801562 14.3089 1.02319 14.3089H17.0612C17.2828 14.3089 17.4656 14.3826 17.6096 14.5232Z" fill="black" fill-opacity="0.8"/>
</svg>
