<svg width="24" height="24" viewBox="0 0 24 24" fill="none" xmlns="http://www.w3.org/2000/svg">
<g clip-path="url(#clip0_4_34)">
<path fill-rule="evenodd" clip-rule="evenodd" d="M14.9775 16.5533C13.7074 17.4934 17.6569 13.4546 16.533 14.9899C16.5611 14.9876 16.509 15.0728 16.3342 15.2861C16.3342 15.2861 19.3358 18.2674 20.8091 19.7846C21.3206 20.3378 20.3977 21.4418 19.7707 20.8654C18.4365 19.5709 15.2794 16.3538 15.2745 16.3485L14.9775 16.5533Z" fill="black" fill-opacity="0.8"/>
<path d="M10.5671 18.0607C12.4984 18.042 14.4101 17.2421 15.7849 15.8835C17.4176 14.2699 18.2584 11.8826 17.9651 9.60337C17.4626 5.69774 14.2519 3.04724 10.5191 3.04724C7.683 3.04724 4.92675 4.82137 3.71775 7.39387C2.79225 9.36337 2.79037 11.7412 3.71775 13.7141C4.91812 16.2686 7.62937 18.0334 10.4707 18.0607C10.503 18.0607 10.5352 18.0607 10.5671 18.0607ZM10.4786 16.8094C7.5945 16.7816 4.9035 14.5511 4.36837 11.6914C3.99112 9.67537 4.70325 7.49362 6.18675 6.06187C7.9185 4.38974 10.6406 3.82987 12.9041 4.77749C14.9291 5.62537 16.4449 7.59412 16.7242 9.76312C16.9635 11.6224 16.2964 13.5709 14.9854 14.913C13.8352 16.0905 12.2224 16.7932 10.5592 16.8094C10.5322 16.8094 10.5056 16.8094 10.4786 16.8094Z" fill="black" fill-opacity="0.8"/>
</g>
<defs>
<clipPath id="clip0_4_34">
<rect width="24" height="24" fill="white"/>
</clipPath>
</defs>
</svg>
